<!-- Created with Inkscape (http://www.inkscape.org/) -->
<svg width="1600.8" height="400" version="1.1" viewBox="0 0 423.56 105.83" xmlns="http://www.w3.org/2000/svg">
 <g transform="translate(289.45 42.303)">
  <g stroke-width="3.7108">
   <path d="m-162.84-42.303v18.406h-5.9374l-16.921 85.646h-27.906l-12.765-55.366-13.359 55.366h-28.054l-15.734-85.646h-5.9374v-18.406h42.452v18.406h-7.5701l7.867 53.139 16.773-71.545h18.851l15.289 71.545 9.3513-53.139h-8.0154v-18.406z"/>
   <path d="m-133.82-10.984q15.289 0 23.304 9.3513 8.1639 9.2029 8.1639 28.054 0 37.109-31.468 37.109t-31.468-37.109q0-18.703 8.1639-28.054 8.1639-9.3513 23.304-9.3513zm-5.9374 52.546q1.3359 4.453 5.9374 4.453t5.7889-4.453q1.3359-4.6015 1.3359-15.437 0-11.133-1.4843-15.289-1.3359-4.3046-5.6405-4.3046t-5.7889 4.3046q-1.4843 4.3046-1.4843 15.289 0 10.836 1.3359 15.437z"/>
   <path d="m-46.019-10.241v21.226q-11.429-0.4453-15.734 3.7109-4.3046 4.1562-4.3046 15.882v14.695h7.867v16.476h-37.851v-16.476h6.2342v-37.999h-6.2342v-16.476h28.648l-0.14843 11.429q3.1171-5.7889 8.3123-9.0545 5.1952-3.414 11.578-3.414z"/>
   <path d="m25.749 45.273v16.476h-29.984v-8.0154q-1.4843 3.8593-6.0858 6.6795-4.453 2.8202-9.7966 2.8202-5.0468 0-8.7576-1.6328t-6.828-5.6405q-2.9687-4.1562-4.6015-11.875-1.6328-7.7186-1.6328-19 0-20.335 5.7889-28.054 5.9374-7.7186 16.031-7.7186 10.836 0 15.882 9.6482v-24.788h-7.1248v-16.476h31.023v87.576zm-36.366 0.14843q4.6015 0 5.7889-4.1562 1.3359-4.3046 1.3359-14.843 0-10.836-1.4843-14.843-1.3359-4.1562-5.4921-4.1562-4.3046 0-5.7889 4.1562-1.3359 4.0077-1.3359 14.843 0 3.7108 0 5.7889 0.14843 1.9296 0.29687 4.6015 0.14843 2.5234 0.59374 3.8593 0.4453 1.1875 1.1875 2.5234 0.74217 1.1875 1.9296 1.7812 1.3359 0.4453 2.9687 0.4453z"/>
   <path d="m68.423 45.273v16.476h-36.218v-16.476h6.0858v-71.1h-6.6795v-16.476h30.577v87.576z"/>
   <path d="m81.263-1.9291q8.906-9.0545 22.71-9.0545 13.804 0 21.968 9.0545 8.1639 9.0545 8.1639 28.648 0 2.3749-0.29687 5.9374h-37.109q0 8.3123 1.9296 11.726 1.9296 3.2655 6.3827 3.2655 6.5311 0 8.4607-7.867h20.187q-5.6405 23.749-28.796 23.749-15.882 0-24.195-8.3123-8.1639-8.3123-8.1639-28.945 0-19.296 8.7576-28.202zm15.289 23.749h14.695v-1.9296q0-7.2733-1.4843-10.836-1.4843-3.7109-5.7889-3.7109-1.7812 0-3.1171 0.59374-1.1875 0.4453-2.0781 1.7812-0.74217 1.3359-1.1875 2.5234-0.4453 1.039-0.74217 3.5624-0.14843 2.3749-0.29687 3.7109 0 1.1875 0 4.3046z"/>
  </g>
 </g>
</svg>
